<?xml version="1.0" encoding="utf-8"?>
<!-- Generator: Adobe Illustrator 19.1.0, SVG Export Plug-In . SVG Version: 6.00 Build 0)  -->
<svg version="1.1" id="Shape_4_1_" xmlns="http://www.w3.org/2000/svg" xmlns:xlink="http://www.w3.org/1999/xlink" x="0px" y="0px"
	 viewBox="0 0 38 38" style="enable-background:new 0 0 38 38;" xml:space="preserve">
<style type="text/css">
	.st0{fill:rgba(255,255,255,.4);}
</style>
<g id="Shape_4">
	<g>
		<path class="st0" d="M32.6,7.1L22.4,1c-1-0.6-2.2-1-3.4-1c-1.2,0-2.4,0.3-3.4,1L5.4,7.1C3.3,8.4,2,10.7,2,13.2v11.6
			c0,2.5,1.3,4.8,3.4,6.1L15.6,37c1,0.6,2.2,1,3.4,1s2.4-0.3,3.4-1l10.2-6.2c2.1-1.3,3.4-3.6,3.4-6.1V13.2
			C36,10.7,34.7,8.4,32.6,7.1z M9,26l1.1-2h17.8l1.1,2H9z M9,21l1.1-2h17.8l1.1,2H9z M9,16l1.1-2h17.8l1.1,2H9z"/>
	</g>
</g>
</svg>
